<svg width="424" height="87" viewBox="0 0 424 87" fill="none" xmlns="http://www.w3.org/2000/svg">
<path d="M51.0051 1.04177L50.5051 1.04286L50.5062 1.54287L51.0062 1.54177L51.0051 1.04177ZM51.005 1L51.505 0.998904L51.5039 0.498895L51.0039 0.500001L51.005 1ZM14.1904 1.08145L14.1893 0.581452L13.6893 0.582558L13.6904 1.08253L14.1904 1.08145ZM14.2304 19.5701L13.7304 19.5712L13.7315 20.0712L14.2315 20.0701L14.2304 19.5701ZM50.4722 19.4899L50.9722 19.4888L50.9712 18.9888L50.4711 18.9899L50.4722 19.4899ZM50.5494 55.1127L50.0494 55.1138L50.0505 55.6138L50.5505 55.6127L50.5494 55.1127ZM70 55.0697L70.0011 55.5697L70.5011 55.5686L70.5 55.0686L70 55.0697ZM69.8829 1L70.3829 0.998917L70.3818 0.498895L69.8818 0.500001L69.8829 1ZM51.5051 1.04067L51.505 0.998904L50.505 1.0011L50.5051 1.04286L51.5051 1.04067ZM51.0039 0.500001L14.1893 0.581452L14.1915 1.58145L51.0061 1.5L51.0039 0.500001ZM13.6904 1.08253L13.7304 19.5712L14.7304 19.569L14.6904 1.08037L13.6904 1.08253ZM14.2315 20.0701L50.4734 19.9899L50.4711 18.9899L14.2293 19.0701L14.2315 20.0701ZM49.9722 19.491L50.0494 55.1138L51.0494 55.1116L50.9722 19.4888L49.9722 19.491ZM50.5505 55.6127L70.0011 55.5697L69.9989 54.5697L50.5483 54.6127L50.5505 55.6127ZM70.5 55.0686L70.3829 0.998917L69.3829 1.00108L69.5 55.0708L70.5 55.0686ZM69.8818 0.500001L51.004 0.541768L51.0062 1.54177L69.884 1.5L69.8818 0.500001Z" fill="url(#paint0_linear_13_36)"/>
<path d="M49.3092 10.1956C49.301 6.40038 46.2391 3.31944 42.4839 3.32775C38.7286 3.33606 35.6801 6.43051 35.6883 10.2258C35.6965 14.021 38.7584 17.1019 42.5137 17.0936C46.269 17.0853 49.3174 13.9909 49.3092 10.1956Z" fill="white" stroke="black" stroke-width="1.30208"/>
<path d="M67.0382 28.0032C67.0299 24.2079 63.9681 21.127 60.2128 21.1353C56.4575 21.1436 53.409 24.2381 53.4173 28.0333C53.4255 31.8286 56.4873 34.9095 60.2426 34.9012C63.9979 34.8929 67.0464 31.7984 67.0382 28.0032Z" fill="white" stroke="black" stroke-width="1.30208"/>
<path d="M67.0382 46.7358C67.0299 42.9406 63.9681 39.8597 60.2128 39.868C56.4575 39.8763 53.409 42.9707 53.4173 46.766C53.4255 50.5612 56.4873 53.6422 60.2426 53.6339C63.9979 53.6255 67.0464 50.5311 67.0382 46.7358Z" fill="white" stroke="black" stroke-width="1.30208"/>
<path d="M67.0382 10.1956C67.0299 6.40038 63.9681 3.31944 60.2128 3.32775C56.4575 3.33606 53.409 6.43051 53.4173 10.2258C53.4255 14.021 56.4873 17.1019 60.2426 17.0936C63.9979 17.0853 67.0464 13.9909 67.0382 10.1956Z" fill="white" stroke="black" stroke-width="1.30208"/>
<path d="M48.7317 46.5045C48.7235 42.7093 45.6617 39.6283 41.9064 39.6366C38.1511 39.645 35.1026 42.7394 35.1108 46.5347C35.1191 50.3299 38.1809 53.4108 41.9362 53.4025C45.6915 53.3942 48.74 50.2998 48.7317 46.5045Z" fill="white" stroke="black" stroke-width="1.30208"/>
<path d="M31.57 64.8151C31.5618 61.0199 28.4999 57.9389 24.7446 57.9472C20.9894 57.9556 17.9409 61.05 17.9491 64.8453C17.9573 68.6405 21.0192 71.7214 24.7745 71.7131C28.5297 71.7048 31.5782 68.6104 31.57 64.8151Z" fill="white" stroke="black" stroke-width="1.30208"/>
<path d="M49.8764 65.0464C49.8682 61.2511 46.8063 58.1702 43.0511 58.1785C39.2958 58.1868 36.2473 61.2813 36.2555 65.0765C36.2637 68.8718 39.3256 71.9527 43.0809 71.9444C46.8362 71.9361 49.8846 68.8416 49.8764 65.0464Z" fill="white" stroke="black" stroke-width="1.30208"/>
<path d="M48.7317 28.0032C48.7235 24.2079 45.6617 21.127 41.9064 21.1353C38.1511 21.1436 35.1026 24.2381 35.1108 28.0333C35.1191 31.8286 38.1809 34.9095 41.9362 34.9012C45.6915 34.8929 48.74 31.7984 48.7317 28.0032Z" fill="white" stroke="black" stroke-width="1.30208"/>
<path d="M14.6358 65.0059C14.6276 61.2106 11.5657 58.1297 7.81046 58.138C4.05518 58.1463 1.0067 61.2408 1.01492 65.036C1.02314 68.8313 4.085 71.9122 7.84028 71.9039C11.5956 71.8956 14.644 68.8011 14.6358 65.0059Z" fill="white" stroke="black" stroke-width="1.30208"/>
<path d="M31.5694 46.5045C31.5611 42.7093 28.4993 39.6283 24.744 39.6366C20.9887 39.645 17.9402 42.7394 17.9484 46.5347C17.9567 50.3299 21.0185 53.4108 24.7738 53.4025C28.5291 53.3942 31.5776 50.2998 31.5694 46.5045Z" fill="white" stroke="black" stroke-width="1.30208"/>
<path d="M14.6358 46.5045C14.6276 42.7093 11.5657 39.6283 7.81046 39.6366C4.05518 39.645 1.0067 42.7394 1.01492 46.5347C1.02314 50.3299 4.085 53.4108 7.84028 53.4025C11.5956 53.3942 14.644 50.2998 14.6358 46.5045Z" fill="white" stroke="black" stroke-width="1.30208"/>
<path d="M14.6358 28.0032C14.6276 24.2079 11.5657 21.127 7.81046 21.1353C4.05518 21.1436 1.0067 24.2381 1.01492 28.0333C1.02314 31.8286 4.085 34.9095 7.84028 34.9012C11.5956 34.8929 14.644 31.7984 14.6358 28.0032Z" fill="white" stroke="black" stroke-width="1.30208"/>
<path d="M31.5694 28.0032C31.5611 24.2079 28.4993 21.127 24.744 21.1353C20.9887 21.1436 17.9402 24.2381 17.9484 28.0333C17.9567 31.8286 21.0185 34.9095 24.7738 34.9012C28.5291 34.8929 31.5776 31.7984 31.5694 28.0032Z" fill="white" stroke="black" stroke-width="1.30208"/>
<path d="M31.9181 10.1956C31.9099 6.40038 28.848 3.31944 25.0927 3.32775C21.3375 3.33606 18.289 6.43051 18.2972 10.2258C18.3054 14.021 21.3673 17.1019 25.1226 17.0936C28.8778 17.0853 31.9263 13.9909 31.9181 10.1956Z" fill="white" stroke="black" stroke-width="1.30208"/>
<path d="M105.336 15.496C104.664 15.24 104.072 15.08 103.56 15.016C103.048 14.92 102.488 14.872 101.88 14.872C100.536 14.872 99.576 15.176 99 15.784C98.456 16.392 98.184 17.496 98.184 19.096V21.304H102.552V27.352H98.184V49H91.32V27.352H87.96V21.304H91.32V19.192C91.32 15.704 91.96 13.048 93.24 11.224C94.552 9.4 96.84 8.488 100.104 8.488C101.96 8.488 103.704 8.712 105.336 9.16V15.496ZM135.224 35.128C135.224 37.208 134.84 39.144 134.072 40.936C133.304 42.696 132.248 44.232 130.904 45.544C129.56 46.824 127.976 47.848 126.152 48.616C124.36 49.352 122.44 49.72 120.392 49.72C118.344 49.72 116.424 49.352 114.632 48.616C112.84 47.848 111.272 46.808 109.928 45.496C108.584 44.184 107.528 42.648 106.76 40.888C105.992 39.096 105.608 37.176 105.608 35.128C105.608 33.112 105.992 31.224 106.76 29.464C107.56 27.672 108.632 26.12 109.976 24.808C111.32 23.464 112.888 22.424 114.68 21.688C116.472 20.92 118.376 20.536 120.392 20.536C122.44 20.536 124.36 20.92 126.152 21.688C127.976 22.424 129.56 23.448 130.904 24.76C132.248 26.04 133.304 27.576 134.072 29.368C134.84 31.16 135.224 33.08 135.224 35.128ZM128.312 35.128C128.312 33.944 128.104 32.84 127.688 31.816C127.272 30.792 126.696 29.896 125.96 29.128C125.256 28.36 124.424 27.768 123.464 27.352C122.504 26.904 121.48 26.68 120.392 26.68C119.304 26.68 118.28 26.904 117.32 27.352C116.36 27.768 115.512 28.36 114.776 29.128C114.072 29.896 113.512 30.792 113.096 31.816C112.68 32.84 112.472 33.944 112.472 35.128C112.472 36.312 112.68 37.416 113.096 38.44C113.512 39.464 114.072 40.36 114.776 41.128C115.512 41.896 116.36 42.504 117.32 42.952C118.28 43.368 119.304 43.576 120.392 43.576C121.48 43.576 122.504 43.368 123.464 42.952C124.424 42.504 125.256 41.896 125.96 41.128C126.696 40.36 127.272 39.464 127.688 38.44C128.104 37.416 128.312 36.312 128.312 35.128ZM159.489 24.136L155.793 29.992C155.121 29.256 154.369 28.616 153.537 28.072C152.737 27.496 151.921 27.208 151.089 27.208C150.641 27.208 150.145 27.32 149.601 27.544C149.089 27.736 148.593 28.072 148.113 28.552C147.665 29.032 147.281 29.672 146.961 30.472C146.641 31.24 146.481 32.2 146.481 33.352V49H139.521V21.256H146.481V24.232C147.313 23.048 148.225 22.136 149.217 21.496C150.241 20.856 151.377 20.536 152.625 20.536C153.841 20.536 155.025 20.872 156.177 21.544C157.361 22.184 158.465 23.048 159.489 24.136ZM184.44 49H177.48V47.512C176.264 48.344 174.968 48.92 173.592 49.24C172.248 49.56 170.856 49.72 169.416 49.72C168.072 49.72 166.856 49.512 165.768 49.096C164.68 48.712 163.736 48.152 162.936 47.416C162.136 46.648 161.512 45.752 161.064 44.728C160.648 43.704 160.44 42.568 160.44 41.32C160.44 39.752 160.776 38.392 161.448 37.24C162.152 36.056 163.096 35.08 164.28 34.312C165.464 33.512 166.84 32.92 168.408 32.536C170.008 32.152 171.72 31.96 173.544 31.96H177.528C177.528 30.328 177 29.032 175.944 28.072C174.888 27.112 173.368 26.632 171.384 26.632C170.424 26.632 169.432 26.808 168.408 27.16C167.384 27.512 166.36 28.152 165.336 29.08L161.256 24.952C162.728 23.544 164.424 22.456 166.344 21.688C168.296 20.92 170.296 20.536 172.344 20.536C174.264 20.536 175.976 20.84 177.48 21.448C178.984 22.056 180.2 22.84 181.128 23.8C182.344 25.016 183.192 26.376 183.672 27.88C184.184 29.384 184.44 31.304 184.44 33.64V49ZM177.48 42.088V36.952H174.312C173.352 36.952 172.44 37.016 171.576 37.144C170.744 37.272 170.008 37.496 169.368 37.816C168.76 38.104 168.264 38.488 167.88 38.968C167.528 39.448 167.352 40.024 167.352 40.696C167.352 41.656 167.72 42.44 168.456 43.048C169.224 43.656 170.2 43.96 171.384 43.96C172.408 43.96 173.416 43.8 174.408 43.48C175.432 43.16 176.456 42.696 177.48 42.088ZM230.592 49H223.536V47.56C222.64 48.296 221.664 48.824 220.608 49.144C219.552 49.496 218.432 49.672 217.248 49.672C215.296 49.672 213.504 49.288 211.872 48.52C210.24 47.72 208.832 46.664 207.648 45.352C206.464 44.008 205.536 42.456 204.864 40.696C204.224 38.936 203.904 37.08 203.904 35.128C203.904 33.048 204.272 31.128 205.008 29.368C205.776 27.576 206.784 26.024 208.032 24.712C209.28 23.4 210.704 22.376 212.304 21.64C213.904 20.872 215.552 20.488 217.248 20.488C218.432 20.488 219.584 20.648 220.704 20.968C221.824 21.288 222.784 21.736 223.584 22.312V9.16H230.592V49ZM223.632 41.56V28.216C223.312 27.992 222.944 27.784 222.528 27.592C222.112 27.368 221.68 27.192 221.232 27.064C220.784 26.904 220.336 26.792 219.888 26.728C219.44 26.632 219.04 26.584 218.688 26.584C217.536 26.584 216.48 26.792 215.52 27.208C214.592 27.592 213.776 28.168 213.072 28.936C212.368 29.672 211.824 30.568 211.44 31.624C211.056 32.68 210.864 33.848 210.864 35.128C210.864 36.376 211.056 37.528 211.44 38.584C211.824 39.608 212.352 40.504 213.024 41.272C213.696 42.008 214.496 42.584 215.424 43C216.384 43.416 217.424 43.624 218.544 43.624C220.368 43.624 222.064 42.936 223.632 41.56ZM265.02 35.128C265.02 37.208 264.636 39.144 263.868 40.936C263.1 42.696 262.044 44.232 260.7 45.544C259.356 46.824 257.772 47.848 255.948 48.616C254.156 49.352 252.236 49.72 250.188 49.72C248.14 49.72 246.22 49.352 244.428 48.616C242.636 47.848 241.068 46.808 239.724 45.496C238.38 44.184 237.324 42.648 236.556 40.888C235.788 39.096 235.404 37.176 235.404 35.128C235.404 33.112 235.788 31.224 236.556 29.464C237.356 27.672 238.428 26.12 239.772 24.808C241.116 23.464 242.684 22.424 244.476 21.688C246.268 20.92 248.172 20.536 250.188 20.536C252.236 20.536 254.156 20.92 255.948 21.688C257.772 22.424 259.356 23.448 260.7 24.76C262.044 26.04 263.1 27.576 263.868 29.368C264.636 31.16 265.02 33.08 265.02 35.128ZM258.108 35.128C258.108 33.944 257.9 32.84 257.484 31.816C257.068 30.792 256.492 29.896 255.756 29.128C255.052 28.36 254.22 27.768 253.26 27.352C252.3 26.904 251.276 26.68 250.188 26.68C249.1 26.68 248.076 26.904 247.116 27.352C246.156 27.768 245.308 28.36 244.572 29.128C243.868 29.896 243.308 30.792 242.892 31.816C242.476 32.84 242.268 33.944 242.268 35.128C242.268 36.312 242.476 37.416 242.892 38.44C243.308 39.464 243.868 40.36 244.572 41.128C245.308 41.896 246.156 42.504 247.116 42.952C248.076 43.368 249.1 43.576 250.188 43.576C251.276 43.576 252.3 43.368 253.26 42.952C254.22 42.504 255.052 41.896 255.756 41.128C256.492 40.36 257.068 39.464 257.484 38.44C257.9 37.416 258.108 36.312 258.108 35.128ZM309.514 44.824C308.106 46.424 306.41 47.64 304.426 48.472C302.442 49.304 300.362 49.72 298.186 49.72C296.17 49.72 294.266 49.352 292.474 48.616C290.682 47.88 289.114 46.872 287.77 45.592C286.458 44.28 285.418 42.728 284.65 40.936C283.882 39.144 283.498 37.208 283.498 35.128C283.498 33.08 283.882 31.176 284.65 29.416C285.418 27.624 286.458 26.072 287.77 24.76C289.082 23.448 290.634 22.424 292.426 21.688C294.218 20.92 296.138 20.536 298.186 20.536C300.298 20.536 302.298 20.92 304.186 21.688C306.106 22.456 307.77 23.624 309.178 25.192L304.522 29.944C303.818 29.016 302.954 28.248 301.93 27.64C300.938 27.032 299.722 26.728 298.282 26.728C297.226 26.728 296.218 26.952 295.258 27.4C294.33 27.848 293.498 28.456 292.762 29.224C292.058 29.96 291.498 30.84 291.082 31.864C290.666 32.888 290.458 33.976 290.458 35.128C290.458 36.28 290.666 37.368 291.082 38.392C291.498 39.416 292.058 40.312 292.762 41.08C293.466 41.816 294.298 42.408 295.258 42.856C296.218 43.304 297.226 43.528 298.282 43.528C299.658 43.528 300.906 43.208 302.026 42.568C303.146 41.896 304.042 41.048 304.714 40.024L309.514 44.824ZM337.44 49H330.528V46.888C330.08 47.336 329.552 47.736 328.944 48.088C328.368 48.408 327.744 48.696 327.072 48.952C326.432 49.176 325.76 49.352 325.056 49.48C324.384 49.608 323.744 49.672 323.136 49.672C321.728 49.672 320.368 49.448 319.056 49C317.776 48.552 316.64 47.864 315.648 46.936C314.656 46.008 313.856 44.808 313.248 43.336C312.672 41.864 312.384 40.12 312.384 38.104V21.256H319.296V37.768C319.296 38.76 319.44 39.64 319.728 40.408C320.048 41.144 320.448 41.768 320.928 42.28C321.44 42.76 322.016 43.128 322.656 43.384C323.328 43.608 324.016 43.72 324.72 43.72C326.96 43.72 328.896 42.952 330.528 41.416V21.256H337.44V49ZM369.881 35.128C369.881 37.08 369.545 38.936 368.873 40.696C368.233 42.456 367.321 44.008 366.137 45.352C364.953 46.664 363.545 47.72 361.913 48.52C360.281 49.288 358.489 49.672 356.537 49.672C355.321 49.672 354.185 49.496 353.129 49.144C352.073 48.824 351.081 48.296 350.153 47.56V49H343.193V9.16H350.201V22.6C351.001 21.96 351.945 21.448 353.033 21.064C354.153 20.68 355.321 20.488 356.537 20.488C358.233 20.488 359.881 20.872 361.481 21.64C363.081 22.376 364.505 23.4 365.753 24.712C367.001 26.024 367.993 27.576 368.729 29.368C369.497 31.128 369.881 33.048 369.881 35.128ZM362.873 35.128C362.873 33.848 362.681 32.68 362.297 31.624C361.913 30.568 361.369 29.672 360.665 28.936C359.993 28.168 359.177 27.592 358.217 27.208C357.289 26.792 356.249 26.584 355.097 26.584C354.361 26.584 353.513 26.744 352.553 27.064C351.593 27.352 350.793 27.736 350.153 28.216V41.56C351.657 42.936 353.353 43.624 355.241 43.624C356.329 43.624 357.337 43.416 358.265 43C359.225 42.584 360.041 42.008 360.713 41.272C361.385 40.504 361.913 39.608 362.297 38.584C362.681 37.528 362.873 36.376 362.873 35.128ZM402.88 35.128C402.88 37.208 402.496 39.144 401.728 40.936C400.96 42.696 399.904 44.232 398.56 45.544C397.216 46.824 395.632 47.848 393.808 48.616C392.016 49.352 390.096 49.72 388.048 49.72C386 49.72 384.08 49.352 382.288 48.616C380.496 47.848 378.928 46.808 377.584 45.496C376.24 44.184 375.184 42.648 374.416 40.888C373.648 39.096 373.264 37.176 373.264 35.128C373.264 33.112 373.648 31.224 374.416 29.464C375.216 27.672 376.288 26.12 377.632 24.808C378.976 23.464 380.544 22.424 382.336 21.688C384.128 20.92 386.032 20.536 388.048 20.536C390.096 20.536 392.016 20.92 393.808 21.688C395.632 22.424 397.216 23.448 398.56 24.76C399.904 26.04 400.96 27.576 401.728 29.368C402.496 31.16 402.88 33.08 402.88 35.128ZM395.968 35.128C395.968 33.944 395.76 32.84 395.344 31.816C394.928 30.792 394.352 29.896 393.616 29.128C392.912 28.36 392.08 27.768 391.12 27.352C390.16 26.904 389.136 26.68 388.048 26.68C386.96 26.68 385.936 26.904 384.976 27.352C384.016 27.768 383.168 28.36 382.432 29.128C381.728 29.896 381.168 30.792 380.752 31.816C380.336 32.84 380.128 33.944 380.128 35.128C380.128 36.312 380.336 37.416 380.752 38.44C381.168 39.464 381.728 40.36 382.432 41.128C383.168 41.896 384.016 42.504 384.976 42.952C385.936 43.368 386.96 43.576 388.048 43.576C389.136 43.576 390.16 43.368 391.12 42.952C392.08 42.504 392.912 41.896 393.616 41.128C394.352 40.36 394.928 39.464 395.344 38.44C395.76 37.416 395.968 36.312 395.968 35.128Z" fill="white"/>
<defs>
<linearGradient id="paint0_linear_13_36" x1="42.1896" y1="-11.951" x2="42.0932" y2="55.1127" gradientUnits="userSpaceOnUse">
<stop stop-color="#175F41"/>
<stop offset="1" stop-color="#C45093"/>
</linearGradient>
</defs>
</svg>
